<mxfile host="app.diagrams.net" agent="Mozilla/5.0 (Windows NT 10.0; Win64; x64) AppleWebKit/537.36 (KHTML, like Gecko) Chrome/130.0.0.0 Safari/537.36" version="24.8.0">
  <diagram name="PÃ¡gina-1" id="7IW_tCpL7wvStLJFSC3Q">
    <mxGraphModel dx="1194" dy="698" grid="1" gridSize="10" guides="1" tooltips="1" connect="1" arrows="1" fold="1" page="1" pageScale="1" pageWidth="827" pageHeight="1169" math="0" shadow="0">
      <root>
        <mxCell id="0" />
        <mxCell id="1" parent="0" />
        <mxCell id="s3CSfUdLFzx7KJfcQNY6-1" value="LOCALIDADE" style="swimlane;fontStyle=0;childLayout=stackLayout;horizontal=1;startSize=26;horizontalStack=0;resizeParent=1;resizeParentMax=0;resizeLast=0;collapsible=1;marginBottom=0;align=center;fontSize=14;" vertex="1" parent="1">
          <mxGeometry x="390" y="220" width="160" height="116" as="geometry" />
        </mxCell>
        <mxCell id="s3CSfUdLFzx7KJfcQNY6-2" value="Id" style="text;strokeColor=none;fillColor=none;spacingLeft=4;spacingRight=4;overflow=hidden;rotatable=0;points=[[0,0.5],[1,0.5]];portConstraint=eastwest;fontSize=12;whiteSpace=wrap;html=1;fontStyle=4" vertex="1" parent="s3CSfUdLFzx7KJfcQNY6-1">
          <mxGeometry y="26" width="160" height="30" as="geometry" />
        </mxCell>
        <mxCell id="s3CSfUdLFzx7KJfcQNY6-3" value="Id_Cidade" style="text;strokeColor=none;fillColor=none;spacingLeft=4;spacingRight=4;overflow=hidden;rotatable=0;points=[[0,0.5],[1,0.5]];portConstraint=eastwest;fontSize=12;whiteSpace=wrap;html=1;" vertex="1" parent="s3CSfUdLFzx7KJfcQNY6-1">
          <mxGeometry y="56" width="160" height="30" as="geometry" />
        </mxCell>
        <mxCell id="s3CSfUdLFzx7KJfcQNY6-4" value="Localidade" style="text;strokeColor=none;fillColor=none;spacingLeft=4;spacingRight=4;overflow=hidden;rotatable=0;points=[[0,0.5],[1,0.5]];portConstraint=eastwest;fontSize=12;whiteSpace=wrap;html=1;" vertex="1" parent="s3CSfUdLFzx7KJfcQNY6-1">
          <mxGeometry y="86" width="160" height="30" as="geometry" />
        </mxCell>
        <mxCell id="s3CSfUdLFzx7KJfcQNY6-5" value="IMOVEL_14548" style="swimlane;fontStyle=0;childLayout=stackLayout;horizontal=1;startSize=26;horizontalStack=0;resizeParent=1;resizeParentMax=0;resizeLast=0;collapsible=1;marginBottom=0;align=center;fontSize=14;" vertex="1" parent="1">
          <mxGeometry x="730" y="220" width="160" height="116" as="geometry" />
        </mxCell>
        <mxCell id="s3CSfUdLFzx7KJfcQNY6-6" value="Id" style="text;strokeColor=none;fillColor=none;spacingLeft=4;spacingRight=4;overflow=hidden;rotatable=0;points=[[0,0.5],[1,0.5]];portConstraint=eastwest;fontSize=12;whiteSpace=wrap;html=1;fontStyle=4" vertex="1" parent="s3CSfUdLFzx7KJfcQNY6-5">
          <mxGeometry y="26" width="160" height="30" as="geometry" />
        </mxCell>
        <mxCell id="s3CSfUdLFzx7KJfcQNY6-7" value="Id_Tipo_Imovel" style="text;strokeColor=none;fillColor=none;spacingLeft=4;spacingRight=4;overflow=hidden;rotatable=0;points=[[0,0.5],[1,0.5]];portConstraint=eastwest;fontSize=12;whiteSpace=wrap;html=1;" vertex="1" parent="s3CSfUdLFzx7KJfcQNY6-5">
          <mxGeometry y="56" width="160" height="30" as="geometry" />
        </mxCell>
        <mxCell id="s3CSfUdLFzx7KJfcQNY6-8" value="Id_Localidade" style="text;strokeColor=none;fillColor=none;spacingLeft=4;spacingRight=4;overflow=hidden;rotatable=0;points=[[0,0.5],[1,0.5]];portConstraint=eastwest;fontSize=12;whiteSpace=wrap;html=1;" vertex="1" parent="s3CSfUdLFzx7KJfcQNY6-5">
          <mxGeometry y="86" width="160" height="30" as="geometry" />
        </mxCell>
        <mxCell id="s3CSfUdLFzx7KJfcQNY6-9" value="CIDADE_14548" style="swimlane;fontStyle=0;childLayout=stackLayout;horizontal=1;startSize=26;horizontalStack=0;resizeParent=1;resizeParentMax=0;resizeLast=0;collapsible=1;marginBottom=0;align=center;fontSize=14;" vertex="1" parent="1">
          <mxGeometry x="50" y="214" width="160" height="86" as="geometry" />
        </mxCell>
        <mxCell id="s3CSfUdLFzx7KJfcQNY6-10" value="Id" style="text;strokeColor=none;fillColor=none;spacingLeft=4;spacingRight=4;overflow=hidden;rotatable=0;points=[[0,0.5],[1,0.5]];portConstraint=eastwest;fontSize=12;whiteSpace=wrap;html=1;fontStyle=4" vertex="1" parent="s3CSfUdLFzx7KJfcQNY6-9">
          <mxGeometry y="26" width="160" height="30" as="geometry" />
        </mxCell>
        <mxCell id="s3CSfUdLFzx7KJfcQNY6-11" value="Cidade" style="text;strokeColor=none;fillColor=none;spacingLeft=4;spacingRight=4;overflow=hidden;rotatable=0;points=[[0,0.5],[1,0.5]];portConstraint=eastwest;fontSize=12;whiteSpace=wrap;html=1;" vertex="1" parent="s3CSfUdLFzx7KJfcQNY6-9">
          <mxGeometry y="56" width="160" height="30" as="geometry" />
        </mxCell>
        <mxCell id="s3CSfUdLFzx7KJfcQNY6-13" value="ADMINISTRADOR_14548" style="swimlane;fontStyle=0;childLayout=stackLayout;horizontal=1;startSize=26;horizontalStack=0;resizeParent=1;resizeParentMax=0;resizeLast=0;collapsible=1;marginBottom=0;align=center;fontSize=14;" vertex="1" parent="1">
          <mxGeometry x="90" y="20" width="210" height="146" as="geometry" />
        </mxCell>
        <mxCell id="s3CSfUdLFzx7KJfcQNY6-15" value="Id" style="text;strokeColor=none;fillColor=none;spacingLeft=4;spacingRight=4;overflow=hidden;rotatable=0;points=[[0,0.5],[1,0.5]];portConstraint=eastwest;fontSize=12;whiteSpace=wrap;html=1;fontStyle=4" vertex="1" parent="s3CSfUdLFzx7KJfcQNY6-13">
          <mxGeometry y="26" width="210" height="30" as="geometry" />
        </mxCell>
        <mxCell id="s3CSfUdLFzx7KJfcQNY6-16" value="Nome" style="text;strokeColor=none;fillColor=none;spacingLeft=4;spacingRight=4;overflow=hidden;rotatable=0;points=[[0,0.5],[1,0.5]];portConstraint=eastwest;fontSize=12;whiteSpace=wrap;html=1;" vertex="1" parent="s3CSfUdLFzx7KJfcQNY6-13">
          <mxGeometry y="56" width="210" height="30" as="geometry" />
        </mxCell>
        <mxCell id="s3CSfUdLFzx7KJfcQNY6-50" value="User" style="text;strokeColor=none;fillColor=none;spacingLeft=4;spacingRight=4;overflow=hidden;rotatable=0;points=[[0,0.5],[1,0.5]];portConstraint=eastwest;fontSize=12;whiteSpace=wrap;html=1;" vertex="1" parent="s3CSfUdLFzx7KJfcQNY6-13">
          <mxGeometry y="86" width="210" height="30" as="geometry" />
        </mxCell>
        <mxCell id="s3CSfUdLFzx7KJfcQNY6-51" value="Pass" style="text;strokeColor=none;fillColor=none;spacingLeft=4;spacingRight=4;overflow=hidden;rotatable=0;points=[[0,0.5],[1,0.5]];portConstraint=eastwest;fontSize=12;whiteSpace=wrap;html=1;" vertex="1" parent="s3CSfUdLFzx7KJfcQNY6-13">
          <mxGeometry y="116" width="210" height="30" as="geometry" />
        </mxCell>
        <mxCell id="s3CSfUdLFzx7KJfcQNY6-17" value="ADMINISTRADOR_LOG_14548" style="swimlane;fontStyle=0;childLayout=stackLayout;horizontal=1;startSize=26;horizontalStack=0;resizeParent=1;resizeParentMax=0;resizeLast=0;collapsible=1;marginBottom=0;align=center;fontSize=14;" vertex="1" parent="1">
          <mxGeometry x="470" y="30" width="240" height="116" as="geometry" />
        </mxCell>
        <mxCell id="s3CSfUdLFzx7KJfcQNY6-18" value="Id_Administrador" style="text;strokeColor=none;fillColor=none;spacingLeft=4;spacingRight=4;overflow=hidden;rotatable=0;points=[[0,0.5],[1,0.5]];portConstraint=eastwest;fontSize=12;whiteSpace=wrap;html=1;fontStyle=0" vertex="1" parent="s3CSfUdLFzx7KJfcQNY6-17">
          <mxGeometry y="26" width="240" height="30" as="geometry" />
        </mxCell>
        <mxCell id="s3CSfUdLFzx7KJfcQNY6-19" value="DataLog" style="text;strokeColor=none;fillColor=none;spacingLeft=4;spacingRight=4;overflow=hidden;rotatable=0;points=[[0,0.5],[1,0.5]];portConstraint=eastwest;fontSize=12;whiteSpace=wrap;html=1;" vertex="1" parent="s3CSfUdLFzx7KJfcQNY6-17">
          <mxGeometry y="56" width="240" height="30" as="geometry" />
        </mxCell>
        <mxCell id="s3CSfUdLFzx7KJfcQNY6-20" value="Log" style="text;strokeColor=none;fillColor=none;spacingLeft=4;spacingRight=4;overflow=hidden;rotatable=0;points=[[0,0.5],[1,0.5]];portConstraint=eastwest;fontSize=12;whiteSpace=wrap;html=1;" vertex="1" parent="s3CSfUdLFzx7KJfcQNY6-17">
          <mxGeometry y="86" width="240" height="30" as="geometry" />
        </mxCell>
        <mxCell id="s3CSfUdLFzx7KJfcQNY6-21" value="ATRIBUTO_14548" style="swimlane;fontStyle=0;childLayout=stackLayout;horizontal=1;startSize=26;horizontalStack=0;resizeParent=1;resizeParentMax=0;resizeLast=0;collapsible=1;marginBottom=0;align=center;fontSize=14;" vertex="1" parent="1">
          <mxGeometry x="720" y="650" width="180" height="176" as="geometry" />
        </mxCell>
        <mxCell id="s3CSfUdLFzx7KJfcQNY6-22" value="Id" style="text;strokeColor=none;fillColor=none;spacingLeft=4;spacingRight=4;overflow=hidden;rotatable=0;points=[[0,0.5],[1,0.5]];portConstraint=eastwest;fontSize=12;whiteSpace=wrap;html=1;fontStyle=4" vertex="1" parent="s3CSfUdLFzx7KJfcQNY6-21">
          <mxGeometry y="26" width="180" height="30" as="geometry" />
        </mxCell>
        <mxCell id="s3CSfUdLFzx7KJfcQNY6-53" value="Tipo_Atributo" style="text;strokeColor=none;fillColor=none;spacingLeft=4;spacingRight=4;overflow=hidden;rotatable=0;points=[[0,0.5],[1,0.5]];portConstraint=eastwest;fontSize=12;whiteSpace=wrap;html=1;" vertex="1" parent="s3CSfUdLFzx7KJfcQNY6-21">
          <mxGeometry y="56" width="180" height="30" as="geometry" />
        </mxCell>
        <mxCell id="s3CSfUdLFzx7KJfcQNY6-23" value="Atributo" style="text;strokeColor=none;fillColor=none;spacingLeft=4;spacingRight=4;overflow=hidden;rotatable=0;points=[[0,0.5],[1,0.5]];portConstraint=eastwest;fontSize=12;whiteSpace=wrap;html=1;" vertex="1" parent="s3CSfUdLFzx7KJfcQNY6-21">
          <mxGeometry y="86" width="180" height="30" as="geometry" />
        </mxCell>
        <mxCell id="s3CSfUdLFzx7KJfcQNY6-24" value="Ordem" style="text;strokeColor=none;fillColor=none;spacingLeft=4;spacingRight=4;overflow=hidden;rotatable=0;points=[[0,0.5],[1,0.5]];portConstraint=eastwest;fontSize=12;whiteSpace=wrap;html=1;" vertex="1" parent="s3CSfUdLFzx7KJfcQNY6-21">
          <mxGeometry y="116" width="180" height="30" as="geometry" />
        </mxCell>
        <mxCell id="s3CSfUdLFzx7KJfcQNY6-52" value="Icone?" style="text;strokeColor=none;fillColor=none;spacingLeft=4;spacingRight=4;overflow=hidden;rotatable=0;points=[[0,0.5],[1,0.5]];portConstraint=eastwest;fontSize=12;whiteSpace=wrap;html=1;" vertex="1" parent="s3CSfUdLFzx7KJfcQNY6-21">
          <mxGeometry y="146" width="180" height="30" as="geometry" />
        </mxCell>
        <mxCell id="s3CSfUdLFzx7KJfcQNY6-29" value="TIPO_IMOVEL_14548" style="swimlane;fontStyle=0;childLayout=stackLayout;horizontal=1;startSize=26;horizontalStack=0;resizeParent=1;resizeParentMax=0;resizeLast=0;collapsible=1;marginBottom=0;align=center;fontSize=14;" vertex="1" parent="1">
          <mxGeometry x="1050" y="220" width="200" height="86" as="geometry" />
        </mxCell>
        <mxCell id="s3CSfUdLFzx7KJfcQNY6-30" value="Id" style="text;strokeColor=none;fillColor=none;spacingLeft=4;spacingRight=4;overflow=hidden;rotatable=0;points=[[0,0.5],[1,0.5]];portConstraint=eastwest;fontSize=12;whiteSpace=wrap;html=1;fontStyle=4" vertex="1" parent="s3CSfUdLFzx7KJfcQNY6-29">
          <mxGeometry y="26" width="200" height="30" as="geometry" />
        </mxCell>
        <mxCell id="s3CSfUdLFzx7KJfcQNY6-31" value="TipoImovel" style="text;strokeColor=none;fillColor=none;spacingLeft=4;spacingRight=4;overflow=hidden;rotatable=0;points=[[0,0.5],[1,0.5]];portConstraint=eastwest;fontSize=12;whiteSpace=wrap;html=1;" vertex="1" parent="s3CSfUdLFzx7KJfcQNY6-29">
          <mxGeometry y="56" width="200" height="30" as="geometry" />
        </mxCell>
        <mxCell id="s3CSfUdLFzx7KJfcQNY6-33" value="TIPO_ATRIBUTO_14548" style="swimlane;fontStyle=0;childLayout=stackLayout;horizontal=1;startSize=26;horizontalStack=0;resizeParent=1;resizeParentMax=0;resizeLast=0;collapsible=1;marginBottom=0;align=center;fontSize=14;" vertex="1" parent="1">
          <mxGeometry x="390" y="660" width="200" height="116" as="geometry" />
        </mxCell>
        <mxCell id="s3CSfUdLFzx7KJfcQNY6-34" value="Id" style="text;strokeColor=none;fillColor=none;spacingLeft=4;spacingRight=4;overflow=hidden;rotatable=0;points=[[0,0.5],[1,0.5]];portConstraint=eastwest;fontSize=12;whiteSpace=wrap;html=1;fontStyle=4" vertex="1" parent="s3CSfUdLFzx7KJfcQNY6-33">
          <mxGeometry y="26" width="200" height="30" as="geometry" />
        </mxCell>
        <mxCell id="s3CSfUdLFzx7KJfcQNY6-35" value="Ordem" style="text;strokeColor=none;fillColor=none;spacingLeft=4;spacingRight=4;overflow=hidden;rotatable=0;points=[[0,0.5],[1,0.5]];portConstraint=eastwest;fontSize=12;whiteSpace=wrap;html=1;" vertex="1" parent="s3CSfUdLFzx7KJfcQNY6-33">
          <mxGeometry y="56" width="200" height="30" as="geometry" />
        </mxCell>
        <mxCell id="s3CSfUdLFzx7KJfcQNY6-36" value="TipoAtributo" style="text;strokeColor=none;fillColor=none;spacingLeft=4;spacingRight=4;overflow=hidden;rotatable=0;points=[[0,0.5],[1,0.5]];portConstraint=eastwest;fontSize=12;whiteSpace=wrap;html=1;" vertex="1" parent="s3CSfUdLFzx7KJfcQNY6-33">
          <mxGeometry y="86" width="200" height="30" as="geometry" />
        </mxCell>
        <mxCell id="s3CSfUdLFzx7KJfcQNY6-37" value="TEM_14548" style="swimlane;fontStyle=0;childLayout=stackLayout;horizontal=1;startSize=26;horizontalStack=0;resizeParent=1;resizeParentMax=0;resizeLast=0;collapsible=1;marginBottom=0;align=center;fontSize=14;" vertex="1" parent="1">
          <mxGeometry x="730" y="430" width="160" height="146" as="geometry" />
        </mxCell>
        <mxCell id="s3CSfUdLFzx7KJfcQNY6-38" value="Id_Imovel" style="text;strokeColor=none;fillColor=none;spacingLeft=4;spacingRight=4;overflow=hidden;rotatable=0;points=[[0,0.5],[1,0.5]];portConstraint=eastwest;fontSize=12;whiteSpace=wrap;html=1;verticalAlign=middle;fontStyle=4" vertex="1" parent="s3CSfUdLFzx7KJfcQNY6-37">
          <mxGeometry y="26" width="160" height="30" as="geometry" />
        </mxCell>
        <mxCell id="s3CSfUdLFzx7KJfcQNY6-39" value="Id_Atributo" style="text;strokeColor=none;fillColor=none;spacingLeft=4;spacingRight=4;overflow=hidden;rotatable=0;points=[[0,0.5],[1,0.5]];portConstraint=eastwest;fontSize=12;whiteSpace=wrap;html=1;verticalAlign=middle;fontStyle=4" vertex="1" parent="s3CSfUdLFzx7KJfcQNY6-37">
          <mxGeometry y="56" width="160" height="30" as="geometry" />
        </mxCell>
        <mxCell id="s3CSfUdLFzx7KJfcQNY6-40" value="Quantidade" style="text;strokeColor=none;fillColor=none;spacingLeft=4;spacingRight=4;overflow=hidden;rotatable=0;points=[[0,0.5],[1,0.5]];portConstraint=eastwest;fontSize=12;whiteSpace=wrap;html=1;" vertex="1" parent="s3CSfUdLFzx7KJfcQNY6-37">
          <mxGeometry y="86" width="160" height="30" as="geometry" />
        </mxCell>
        <mxCell id="s3CSfUdLFzx7KJfcQNY6-41" value="DataRelacao" style="text;strokeColor=none;fillColor=none;spacingLeft=4;spacingRight=4;overflow=hidden;rotatable=0;points=[[0,0.5],[1,0.5]];portConstraint=eastwest;fontSize=12;whiteSpace=wrap;html=1;" vertex="1" parent="s3CSfUdLFzx7KJfcQNY6-37">
          <mxGeometry y="116" width="160" height="30" as="geometry" />
        </mxCell>
        <mxCell id="s3CSfUdLFzx7KJfcQNY6-42" value="FOTO_14548" style="swimlane;fontStyle=0;childLayout=stackLayout;horizontal=1;startSize=26;horizontalStack=0;resizeParent=1;resizeParentMax=0;resizeLast=0;collapsible=1;marginBottom=0;align=center;fontSize=14;" vertex="1" parent="1">
          <mxGeometry x="1070" y="460" width="160" height="86" as="geometry" />
        </mxCell>
        <mxCell id="s3CSfUdLFzx7KJfcQNY6-43" value="Id_Imovel" style="text;strokeColor=none;fillColor=none;spacingLeft=4;spacingRight=4;overflow=hidden;rotatable=0;points=[[0,0.5],[1,0.5]];portConstraint=eastwest;fontSize=12;whiteSpace=wrap;html=1;fontStyle=4" vertex="1" parent="s3CSfUdLFzx7KJfcQNY6-42">
          <mxGeometry y="26" width="160" height="30" as="geometry" />
        </mxCell>
        <mxCell id="s3CSfUdLFzx7KJfcQNY6-45" value="Foto" style="text;strokeColor=none;fillColor=none;spacingLeft=4;spacingRight=4;overflow=hidden;rotatable=0;points=[[0,0.5],[1,0.5]];portConstraint=eastwest;fontSize=12;whiteSpace=wrap;html=1;fontStyle=4" vertex="1" parent="s3CSfUdLFzx7KJfcQNY6-42">
          <mxGeometry y="56" width="160" height="30" as="geometry" />
        </mxCell>
      </root>
    </mxGraphModel>
  </diagram>
</mxfile>
